<?xml version="1.0" standalone="no"?>
<!DOCTYPE svg PUBLIC "-//W3C//DTD SVG 20010904//EN"
 "http://www.w3.org/TR/2001/REC-SVG-20010904/DTD/svg10.dtd">
<svg version="1.0" xmlns="http://www.w3.org/2000/svg"
 width="1080.000000pt" height="1080.000000pt" viewBox="0 0 1080.000000 1080.000000"
 preserveAspectRatio="xMidYMid meet">
<metadata>
Created by potrace 1.15, written by Peter Selinger 2001-2017
</metadata>
<g transform="translate(0.000000,1080.000000) scale(0.100000,-0.100000)"
fill="#000000" stroke="none">
<path d="M5135 10789 c-773 -37 -1534 -242 -2221 -599 -1464 -761 -2512 -2166
-2814 -3775 -204 -1087 -78 -2196 365 -3200 233 -529 601 -1087 980 -1485 45
-47 97 -101 116 -121 72 -77 262 -251 376 -346 930 -775 2037 -1202 3241
-1252 1505 -63 2948 496 4023 1559 1229 1216 1798 2955 1528 4675 -216 1379
-964 2623 -2084 3466 -877 661 -1899 1027 -3015 1079 -234 11 -245 11 -495 -1z
m650 -50 c1039 -68 2057 -457 2890 -1103 1045 -811 1753 -1971 1990 -3261 100
-545 116 -1124 45 -1665 -254 -1938 -1533 -3575 -3355 -4295 -826 -326 -1751
-440 -2643 -324 -1169 151 -2246 679 -3087 1514 -531 527 -948 1163 -1219
1863 -190 488 -307 1010 -346 1542 -13 175 -13 607 0 785 74 1015 438 1988
1048 2804 936 1252 2359 2032 3907 2141 264 18 482 18 770 -1z"/>
<path d="M5940 8529 l0 -139 -62 0 c-180 -1 -485 -46 -688 -102 -41 -11 -88
-24 -105 -28 -136 -36 -408 -146 -565 -228 -760 -400 -1293 -1084 -1466 -1882
-48 -222 -57 -318 -58 -610 0 -293 11 -407 60 -640 74 -353 215 -675 425 -968
367 -513 947 -921 1594 -1119 359 -109 802 -129 1211 -53 504 94 990 325 1421
675 l31 26 115 -118 c63 -65 127 -133 142 -151 l28 -33 22 21 c35 33 164 211
238 328 134 212 279 523 355 762 222 695 216 1419 -18 2131 -115 351 -293 680
-539 999 -61 79 -365 393 -456 471 -476 409 -1020 676 -1582 778 l-103 18 0
-138z m-1600 -815 c0 -14 4 -44 9 -67 6 -23 17 -85 26 -137 9 -52 22 -126 30
-165 7 -38 21 -113 30 -165 9 -52 22 -126 30 -165 7 -38 21 -113 30 -165 9
-52 23 -126 30 -165 8 -38 21 -113 30 -165 9 -52 23 -126 30 -165 8 -38 26
-137 40 -220 14 -82 32 -181 40 -220 7 -38 21 -113 30 -165 9 -52 23 -129 30
-170 8 -41 21 -115 31 -165 9 -49 22 -121 29 -160 8 -38 21 -113 30 -165 9
-52 23 -126 30 -165 8 -38 21 -110 29 -160 30 -171 37 -210 51 -280 7 -38 17
-92 20 -120 l7 -50 12 30 c7 17 30 88 51 159 l39 128 60 -64 c34 -35 82 -82
109 -104 l47 -40 -41 -134 c-22 -74 -61 -200 -85 -280 -25 -80 -51 -165 -58
-190 -8 -25 -35 -112 -61 -195 -25 -82 -50 -163 -55 -180 -40 -142 -75 -244
-81 -238 -5 5 -13 38 -18 73 -6 36 -17 101 -25 145 -20 105 -75 405 -86 475
-5 30 -16 91 -24 135 -36 188 -57 304 -66 355 -5 30 -19 105 -30 165 -11 61
-25 135 -30 165 -5 30 -16 89 -24 130 -14 77 -50 275 -66 365 -5 28 -23 127
-40 220 -17 94 -35 193 -40 220 -20 114 -41 226 -60 330 -12 61 -25 133 -29
160 -30 175 -44 251 -50 257 -4 4 -31 -99 -60 -230 -30 -130 -59 -259 -66
-287 -7 -27 -20 -84 -29 -125 -10 -41 -21 -93 -26 -115 -6 -22 -19 -80 -30
-130 -11 -49 -25 -108 -30 -130 -5 -22 -19 -80 -30 -130 -11 -49 -24 -108 -30
-130 -15 -65 -38 -165 -55 -240 -18 -77 -39 -167 -61 -262 -25 -108 -45 -196
-59 -253 -7 -30 -18 -82 -25 -115 -7 -33 -16 -63 -19 -67 -5 -6 -247 45 -257
54 -2 2 1 20 6 39 5 18 15 63 24 99 8 36 22 97 31 135 23 98 42 179 59 255 24
110 66 292 82 360 20 87 37 158 73 320 17 74 38 162 46 195 19 81 115 500 126
550 4 22 24 110 44 195 45 188 64 272 75 325 5 22 25 110 45 195 20 85 45 191
54 235 10 44 44 196 77 337 54 237 74 299 74 232z m1785 -119 c50 -15 93 -30
98 -34 4 -4 -13 -74 -39 -157 -25 -82 -49 -162 -54 -179 -5 -16 -30 -97 -55
-180 -42 -136 -53 -172 -83 -270 -5 -19 -17 -32 -33 -37 -13 -3 -80 -24 -149
-46 -69 -22 -127 -38 -129 -36 -2 2 15 66 38 141 23 76 46 152 51 168 5 17 36
118 68 225 33 107 77 249 97 315 20 66 39 123 41 127 2 3 17 3 32 -2 15 -5 68
-21 117 -35z m1399 -71 c138 -36 241 -117 293 -230 46 -102 32 -276 -35 -409
-34 -70 -287 -428 -760 -1079 -100 -137 -179 -253 -176 -258 3 -4 24 -8 47 -8
114 0 352 -42 485 -85 320 -105 530 -314 641 -640 124 -367 -33 -783 -393
-1042 -93 -66 -292 -170 -381 -198 -27 -8 -347 -65 -710 -125 -363 -61 -700
-117 -750 -125 -88 -15 -177 -30 -355 -60 -141 -24 -270 -45 -335 -56 -33 -6
-68 -12 -77 -15 -24 -7 -23 6 5 96 13 41 32 102 42 136 l18 60 106 17 c58 10
142 24 186 32 44 7 123 21 175 30 52 8 133 22 180 30 187 32 398 67 450 75 30
4 82 13 115 18 33 6 103 18 155 27 52 9 120 20 150 25 122 21 369 62 430 71
93 13 162 35 254 79 205 99 350 231 430 392 58 118 70 175 63 307 -5 118 -29
191 -105 320 -141 235 -463 361 -928 361 -119 0 -184 -5 -393 -31 -46 -5 -84
-9 -86 -7 -1 2 25 40 59 85 33 45 80 108 103 140 23 32 89 123 148 203 58 80
141 195 185 255 44 61 106 146 138 190 445 612 627 874 652 941 35 94 24 155
-33 190 -30 18 -64 19 -653 24 l-621 5 38 125 c21 69 37 131 34 138 -3 9 115
12 571 12 495 0 585 -2 638 -16z m-977 -840 c105 -16 256 -58 358 -99 93 -37
185 -83 185 -93 0 -7 -131 -196 -145 -211 -3 -2 -46 15 -97 37 -106 46 -197
74 -319 99 -113 23 -354 23 -464 0 -430 -88 -735 -354 -855 -747 -42 -137 -54
-230 -47 -372 10 -228 69 -370 221 -527 232 -240 642 -369 1058 -332 162 15
280 37 418 80 148 46 176 58 319 127 105 51 136 63 143 52 44 -66 118 -212
112 -218 -19 -17 -164 -90 -265 -133 -138 -59 -302 -109 -464 -144 -122 -25
-146 -27 -390 -27 -214 -1 -275 3 -345 18 -190 40 -313 82 -450 152 -280 142
-484 365 -568 619 -49 145 -56 194 -56 380 -1 196 9 261 66 430 169 507 592
848 1133 915 55 6 107 13 115 15 29 7 246 -6 337 -21z m-734 -491 c-14 -43
-28 -91 -33 -108 -4 -16 -29 -97 -55 -180 -101 -327 -167 -541 -175 -570 -5
-16 -36 -120 -70 -230 -34 -110 -64 -210 -67 -223 -9 -37 -19 -34 -53 10 -45
62 -96 173 -114 249 l-15 66 35 114 c20 63 39 128 44 144 4 17 29 98 55 180
25 83 50 164 55 180 53 186 62 206 122 263 32 30 75 67 96 81 65 45 185 110
193 106 4 -3 -4 -40 -18 -82z"/>
<path d="M9684 4398 c-3 -16 -4 -31 -2 -32 1 -2 57 -15 123 -30 154 -36 159
-38 105 -47 -45 -8 -267 -73 -274 -80 -3 -2 -6 -19 -8 -38 -3 -33 -2 -34 47
-47 148 -40 305 -77 309 -73 2 2 6 15 8 29 3 24 -1 26 -124 56 -159 40 -159
40 -123 48 103 23 282 81 293 94 6 9 12 25 12 37 0 19 -17 26 -180 66 l-179
45 -7 -28z"/>
<path d="M980 4324 c-61 -22 -88 -39 -108 -68 -46 -67 -49 -124 -11 -213 17
-40 20 -42 43 -32 24 11 24 13 11 39 -25 48 -28 101 -8 139 33 63 131 93 198
61 34 -17 75 -89 75 -132 0 -24 4 -28 26 -28 26 0 27 1 21 49 -13 112 -80 183
-175 188 -32 1 -64 0 -72 -3z"/>
<path d="M9577 4023 c-3 -16 -3 -30 -1 -32 2 -3 82 -30 177 -61 148 -49 173
-55 179 -41 18 43 12 47 -165 105 -95 31 -176 56 -179 56 -3 0 -8 -12 -11 -27z"/>
<path d="M1076 4000 c-46 -14 -103 -59 -120 -95 -39 -82 -4 -190 75 -233 101
-55 255 9 288 119 23 78 -27 180 -102 208 -33 13 -100 13 -141 1z m121 -60 c8
0 28 -13 44 -29 54 -54 30 -129 -54 -170 -101 -49 -197 -7 -197 85 0 54 121
134 178 118 8 -2 20 -4 29 -4z"/>
<path d="M9530 3881 c0 -5 -2 -16 -6 -24 -6 -16 43 -39 181 -88 44 -16 74 -29
67 -29 -21 0 -275 -40 -295 -46 -21 -7 -52 -63 -40 -74 12 -10 322 -130 337
-130 18 0 29 42 13 52 -7 4 -55 24 -107 44 -52 20 -108 42 -124 48 -28 11 -22
13 70 24 96 12 191 28 226 38 9 3 21 18 27 35 9 25 8 31 -7 36 -9 4 -83 33
-164 65 -147 58 -178 66 -178 49z"/>
<path d="M1345 3645 c-16 -8 -87 -41 -157 -74 -71 -33 -128 -64 -128 -70 0
-18 12 -41 21 -41 5 0 65 27 134 59 69 33 125 57 125 54 0 -3 -15 -24 -33 -47
-19 -23 -62 -82 -96 -133 -62 -91 -62 -92 -46 -122 l15 -30 63 28 c159 71 253
116 264 124 11 8 5 35 -13 55 -1 2 -59 -23 -128 -57 -70 -33 -123 -54 -119
-48 3 7 21 30 38 52 56 70 135 194 135 210 0 24 -19 55 -33 55 -7 0 -25 -7
-42 -15z"/>
<path d="M9352 3455 c-23 -47 -42 -90 -42 -96 0 -10 328 -175 334 -168 2 2 23
47 48 99 41 85 44 96 30 108 -9 6 -19 12 -24 12 -4 0 -23 -31 -41 -70 l-33
-69 -51 24 -52 24 29 63 c26 57 27 64 12 76 -9 6 -19 12 -22 12 -4 0 -19 -27
-35 -60 -16 -33 -33 -60 -37 -60 -5 0 -27 9 -48 20 l-40 20 35 69 c29 58 32
70 19 75 -32 12 -41 4 -82 -79z"/>
<path d="M1469 3275 c-39 -21 -53 -64 -45 -139 6 -52 4 -66 -9 -80 -39 -39
-98 -3 -113 69 -7 35 -11 40 -33 37 -33 -5 -34 -7 -21 -49 40 -132 145 -181
216 -102 28 31 28 35 23 105 -6 61 -4 76 11 94 14 17 24 21 41 15 25 -8 61
-60 61 -88 0 -14 6 -18 28 -15 22 2 26 7 24 28 -6 44 -50 107 -86 124 -41 19
-63 20 -97 1z"/>
<path d="M9250 3228 c-28 -19 -110 -137 -110 -158 0 -3 72 -47 161 -99 181
-104 165 -103 213 -10 48 91 43 158 -13 192 -35 21 -58 21 -93 3 -27 -14 -28
-14 -28 9 0 30 -37 72 -70 80 -18 4 -36 -1 -60 -17z"/>
<path d="M1560 2954 c-80 -52 -149 -99 -153 -103 -4 -4 19 -49 53 -100 54 -82
62 -91 80 -81 11 6 20 14 20 17 0 4 -19 35 -42 71 -34 52 -39 65 -27 73 8 5
29 19 48 31 l34 21 18 -24 c10 -13 26 -39 36 -56 19 -36 34 -41 53 -18 11 13
6 25 -24 71 -21 31 -36 57 -34 59 11 11 81 56 83 53 1 -2 19 -29 39 -60 39
-62 43 -65 69 -45 15 11 11 20 -41 99 -31 48 -59 88 -62 88 -3 0 -70 -43 -150
-96z"/>
<path d="M8997 2855 l-17 -24 99 -75 c106 -81 131 -108 131 -142 0 -36 -11
-54 -41 -70 -39 -20 -69 -6 -192 84 l-95 71 -18 -26 c-20 -31 -23 -27 118
-129 84 -60 127 -78 173 -68 37 8 51 18 87 68 35 49 37 100 5 147 -19 28 -211
188 -227 188 -3 0 -13 -11 -23 -24z"/>
<path d="M1730 2699 c-74 -55 -139 -104 -144 -109 -5 -5 0 -19 11 -33 l19 -25
151 110 c150 110 151 111 136 134 -8 13 -20 24 -27 23 -6 0 -72 -45 -146 -100z"/>
<path d="M1840 2569 c-74 -61 -139 -115 -144 -120 -11 -10 10 -42 82 -126 39
-45 47 -50 63 -40 11 7 19 16 19 20 0 5 -20 33 -45 61 -25 29 -45 56 -45 59 0
2 54 49 120 103 66 54 120 100 120 103 0 3 -8 16 -18 28 l-17 22 -135 -110z"/>
<path d="M8745 2503 c-42 -22 -62 -40 -110 -102 l-43 -53 134 -119 c73 -66
140 -119 148 -119 18 0 87 82 115 137 38 76 21 152 -51 220 -56 54 -132 68
-193 36z m100 -58 c20 -8 49 -29 65 -46 52 -57 51 -118 -1 -182 l-30 -36 -104
91 -104 92 19 27 c27 37 66 61 113 68 4 0 23 -6 42 -14z"/>
<path d="M2112 2227 l-132 -132 21 -22 22 -22 100 105 c55 57 102 103 104 100
2 -2 -1 -16 -8 -32 -6 -16 -26 -87 -44 -159 l-34 -130 25 -25 24 -25 132 133
133 132 -24 22 -23 23 -95 -100 c-66 -69 -94 -92 -89 -75 4 14 22 84 41 155
l34 130 -27 27 -27 28 -133 -133z"/>
<path d="M8389 2162 c-70 -45 -95 -112 -64 -172 24 -46 70 -55 152 -31 61 18
70 19 90 5 13 -8 23 -25 23 -38 0 -29 -41 -74 -79 -87 -27 -10 -29 -13 -19
-35 13 -29 35 -25 86 13 53 40 74 80 69 133 -9 81 -71 109 -167 75 -54 -19
-84 -19 -100 1 -20 23 -1 64 40 92 42 28 44 33 28 55 -12 16 -16 16 -59 -11z"/>
<path d="M2430 1929 c-85 -54 -155 -104 -155 -110 0 -7 9 -18 20 -25 17 -11
26 -10 66 15 l46 29 44 -35 c24 -19 45 -38 47 -42 1 -4 -7 -30 -18 -56 l-21
-49 28 -22 c25 -20 29 -21 35 -6 4 9 37 91 73 181 l65 165 -27 28 c-15 15 -32
28 -37 27 -6 0 -81 -45 -166 -100z"/>
<path d="M8155 1951 c-22 -10 -61 -37 -87 -60 l-47 -42 112 -144 c62 -79 115
-144 118 -144 4 -1 17 7 29 17 l23 18 -49 63 c-40 51 -46 64 -34 72 56 37 74
34 134 -17 46 -39 50 -40 81 -16 l23 19 -53 41 c-30 23 -67 45 -84 48 -29 6
-30 8 -24 49 5 37 2 46 -23 73 -37 40 -69 47 -119 23z"/>
<path d="M2725 1890 c-10 -11 -16 -21 -14 -23 54 -37 79 -62 76 -72 -3 -6 -44
-65 -92 -131 l-87 -119 22 -17 c12 -10 25 -18 29 -18 3 0 47 56 96 125 50 68
94 125 99 125 4 0 25 -13 46 -30 38 -30 43 -29 63 6 4 6 -29 36 -76 70 -45 32
-96 69 -113 81 -31 23 -31 23 -49 3z"/>
<path d="M7923 1783 c-13 -8 -23 -19 -23 -24 0 -5 32 -56 70 -115 78 -118 87
-155 47 -192 -33 -31 -77 -29 -109 6 -14 15 -53 69 -87 120 -54 81 -64 91 -81
82 -10 -6 -22 -15 -25 -20 -9 -14 120 -209 159 -240 46 -38 121 -35 173 6 49
39 68 93 52 143 -8 27 -147 253 -153 250 0 0 -11 -7 -23 -16z"/>
<path d="M2924 1563 c-53 -80 -98 -152 -100 -158 -6 -14 46 -39 56 -28 10 11
151 229 175 270 19 32 19 33 0 48 -11 8 -24 15 -28 15 -4 0 -51 -66 -103 -147z"/>
<path d="M7547 1546 c-43 -24 -83 -48 -89 -54 -7 -7 5 -37 39 -99 28 -48 67
-119 88 -158 21 -38 39 -71 40 -73 1 -2 27 11 56 28 30 17 73 40 97 52 44 23
51 38 28 57 -12 10 -28 5 -81 -24 -37 -20 -67 -35 -68 -33 -23 39 -47 88 -47
95 0 6 17 18 38 27 20 9 47 25 59 34 20 15 20 19 8 36 -14 18 -16 18 -75 -13
-34 -18 -63 -31 -64 -29 -1 1 -13 20 -26 42 -25 42 -27 40 45 78 60 31 66 37
54 59 -5 10 -13 19 -17 19 -4 0 -42 -20 -85 -44z"/>
<path d="M3152 1569 c-109 -32 -178 -212 -114 -298 72 -98 206 -103 286 -10
97 114 61 272 -72 309 -43 12 -56 12 -100 -1z m112 -60 c14 -7 33 -28 42 -47
15 -33 15 -39 0 -88 -22 -69 -80 -124 -132 -124 -81 0 -119 92 -74 179 38 75
104 107 164 80z"/>
<path d="M7324 1430 c-50 -11 -115 -52 -147 -93 -63 -78 -42 -199 47 -271 32
-26 45 -31 94 -30 60 0 122 24 175 67 l28 22 -37 83 c-21 45 -43 82 -50 82 -6
0 -34 -10 -61 -23 -45 -21 -49 -25 -40 -45 7 -15 16 -21 26 -16 42 17 47 15
66 -25 21 -48 13 -63 -41 -81 -66 -22 -127 7 -163 78 -19 37 -16 101 6 131 24
32 90 71 121 71 17 0 22 6 22 24 0 31 -7 35 -46 26z"/>
<path d="M3456 1323 c-26 -60 -60 -135 -76 -168 -26 -54 -27 -61 -12 -72 24
-19 41 -16 51 10 5 12 26 60 48 107 21 47 44 96 50 110 11 24 12 23 12 -14 1
-22 6 -80 11 -130 22 -188 18 -173 52 -185 17 -6 32 -10 33 -9 6 10 65 140 65
143 0 2 18 43 40 90 44 95 47 110 24 119 -28 11 -34 7 -53 -36 -18 -42 -41
-93 -77 -173 l-19 -40 -2 60 c-3 64 -21 229 -29 257 -4 12 -50 38 -69 38 -1 0
-23 -48 -49 -107z"/>
<path d="M6876 1245 c-37 -13 -71 -27 -74 -30 -4 -3 2 -29 12 -58 38 -112 109
-297 113 -297 4 0 44 20 50 24 2 1 -9 33 -22 71 -14 37 -25 69 -25 70 0 8 61
23 77 19 10 -3 35 -30 57 -60 34 -50 41 -55 65 -49 14 4 28 9 30 11 9 9 -26
61 -72 107 -45 46 -46 49 -32 70 41 59 -11 147 -87 147 -13 0 -54 -11 -92 -25z"/>
<path d="M3865 1142 c-44 -59 -97 -130 -118 -159 l-38 -52 33 -9 c30 -8 35 -5
56 22 13 17 27 37 31 45 7 11 18 10 67 -6 l59 -20 3 -57 c3 -49 6 -58 28 -68
13 -6 26 -9 29 -6 3 2 8 90 11 195 l7 191 -38 16 c-20 9 -40 16 -44 16 -3 0
-42 -49 -86 -108z"/>
<path d="M4206 1152 c-3 -5 -9 -26 -14 -48 -14 -57 -72 -272 -78 -288 -4 -10
17 -19 73 -35 134 -36 139 -36 146 -10 3 13 5 24 4 26 -2 1 -32 10 -68 19 -35
9 -67 18 -70 20 -7 4 3 49 45 208 20 78 23 102 13 108 -16 10 -44 10 -51 0z"/>
<path d="M6568 1148 c-31 -8 -38 -15 -38 -34 0 -14 -5 -102 -11 -195 -6 -94
-9 -173 -6 -175 2 -2 18 1 35 7 31 10 32 13 32 65 0 60 5 65 85 78 39 7 41 6
68 -39 23 -39 31 -45 50 -40 12 4 26 11 31 16 9 8 -156 272 -193 310 -13 13
-23 14 -53 7z"/>
<path d="M6297 1083 c-3 -5 -1 -28 3 -53 18 -92 17 -96 -47 -109 -82 -16 -103
-15 -103 9 0 10 -5 42 -11 70 -10 47 -13 51 -37 48 -17 -2 -28 -10 -30 -22 -2
-10 11 -94 28 -187 l32 -169 27 6 c14 4 27 8 29 10 2 1 -2 37 -8 79 -6 42 -10
79 -7 81 2 2 30 9 63 15 32 5 66 12 75 15 14 4 19 -8 28 -63 17 -101 17 -100
52 -95 35 5 35 -10 2 167 -37 202 -36 200 -65 203 -14 2 -28 -1 -31 -5z"/>
<path d="M4606 1029 c-25 -159 -36 -232 -41 -280 l-7 -56 34 -6 c102 -18 128
-18 180 -3 87 25 128 85 128 188 0 116 -63 170 -214 184 l-75 7 -5 -34z m166
-45 c43 -22 58 -52 58 -115 0 -100 -65 -158 -161 -143 l-40 7 6 46 c3 25 13
88 22 139 l16 94 35 -7 c20 -4 49 -13 64 -21z"/>
<path d="M5863 1020 c-42 -10 -99 -53 -118 -90 -23 -44 -20 -154 6 -199 41
-74 129 -105 228 -81 51 12 56 16 46 43 -5 11 -22 13 -81 9 l-74 -5 -35 37
c-32 35 -35 42 -35 101 0 53 4 68 25 94 30 35 84 55 131 48 27 -5 34 -2 40 15
4 13 1 24 -7 29 -17 10 -81 10 -126 -1z"/>
<path d="M5000 998 c0 -7 -7 -85 -15 -173 -8 -88 -15 -165 -15 -172 0 -13 43
-20 158 -26 l72 -4 0 28 0 28 -77 3 c-76 3 -78 4 -77 28 1 14 2 40 3 59 l1 33
70 -4 70 -4 0 28 c0 28 -1 28 -64 28 -36 0 -67 3 -69 8 -3 4 -3 27 0 52 l5 45
77 0 c70 0 76 2 79 21 3 19 -3 22 -74 27 -113 10 -144 9 -144 -5z"/>
<path d="M5354 991 c-33 -15 -64 -61 -64 -96 0 -43 23 -70 94 -108 75 -40 85
-56 62 -92 -17 -25 -22 -27 -69 -22 -29 2 -59 7 -68 11 -12 5 -18 0 -23 -20
-4 -14 -5 -29 -2 -32 3 -3 39 -7 80 -10 64 -4 79 -1 109 17 36 22 47 44 47 96
0 45 -23 71 -96 105 -62 30 -65 33 -62 63 4 41 40 56 98 40 38 -10 41 -9 46
14 4 13 3 27 0 31 -11 10 -129 13 -152 3z"/>
</g>
</svg>
